<svg height="512" viewBox="0 0 512 512" width="512" xmlns="http://www.w3.org/2000/svg"><g id="Flushed_Face" data-name="Flushed Face"><g id="Flat"><path d="m256 512a256 256 0 0 1 -181.02-437.02 256 256 0 0 1 362.04 362.04 254.331 254.331 0 0 1 -181.02 74.98z" fill="#ffcc80"/><path d="m437.02 74.98q-6.261-6.26-12.878-12.02a256.574 256.574 0 0 1 -59.122 270.06 256 256 0 0 1 -349.162 12.02 256.057 256.057 0 1 0 421.162-270.06z" fill="#ffb74d"/><path d="m272 352h-32a8 8 0 0 1 0-16h32a8 8 0 0 1 0 16z" fill="#ef5350"/><g fill="#e27484"><path d="m328 336a8 8 0 0 1 -5.657-13.657l32-32a8 8 0 0 1 11.314 11.314l-32 32a7.974 7.974 0 0 1 -5.657 2.343z"/><path d="m376 336a8 8 0 0 1 -5.657-13.657l32-32a8 8 0 0 1 11.314 11.314l-32 32a7.974 7.974 0 0 1 -5.657 2.343z"/><path d="m424 336a8 8 0 0 1 -5.657-13.657l32-32a8 8 0 0 1 11.314 11.314l-32 32a7.974 7.974 0 0 1 -5.657 2.343z"/><path d="m72 336a8 8 0 0 1 -5.657-13.657l32-32a8 8 0 0 1 11.314 11.314l-32 32a7.976 7.976 0 0 1 -5.657 2.343z"/><path d="m120 336a8 8 0 0 1 -5.657-13.657l32-32a8 8 0 1 1 11.314 11.314l-32 32a7.976 7.976 0 0 1 -5.657 2.343z"/><path d="m168 336a8 8 0 0 1 -5.657-13.657l32-32a8 8 0 1 1 11.314 11.314l-32 32a7.976 7.976 0 0 1 -5.657 2.343z"/></g><circle cx="136" cy="192" fill="#fff" r="80"/><circle cx="376" cy="192" fill="#fff" r="80"/><path d="m182.088 126.671a79.936 79.936 0 0 1 -124.176 82.658 79.988 79.988 0 1 0 124.176-82.658z" fill="#f5f5f5"/><path d="m422.088 126.671a79.936 79.936 0 0 1 -124.176 82.658 79.988 79.988 0 1 0 124.176-82.658z" fill="#f5f5f5"/><circle cx="376" cy="192" fill="#616161" r="24"/><circle cx="368" cy="184" fill="#fff" r="8"/><circle cx="136" cy="192" fill="#616161" r="24"/><circle cx="128" cy="184" fill="#fff" r="8"/><path d="m377.943 168.085a23.983 23.983 0 0 1 -17.943 39.915c-.655 0-1.3-.034-1.943-.085a23.992 23.992 0 1 0 19.886-39.83z" fill="#424242"/><path d="m137.943 168.085a23.983 23.983 0 0 1 -17.943 39.915c-.655 0-1.3-.034-1.943-.085a23.992 23.992 0 1 0 19.886-39.83z" fill="#424242"/><circle cx="56" cy="264" fill="#ffe4c0" r="24"/><circle cx="456" cy="264" fill="#ffe4c0" r="24"/></g></g></svg>