<svg width="380" height="117" viewBox="0 0 380 117" fill="none" xmlns="http://www.w3.org/2000/svg">
<path fill-rule="evenodd" clip-rule="evenodd" d="M0 55.0975C0 51.1753 4.31 48.7802 7.64062 50.8516L16 56.0506C32 64.7577 63 83.4156 95 74.7086C127 64.7577 158 27.4417 190 11.2715C222 -6.14263 253 -1.16717 285 11.2715C317 22.4663 348 41.1242 364 51.0752L377.39 58.3619C378.999 59.2373 380 60.9222 380 62.7537V112C380 114.761 377.761 117 375 117H364C348 117 317 117 285 117C253 117 222 117 190 117C158 117 127 117 95 117C63 117 32 117 16 117H5C2.23858 117 0 114.761 0 112V55.0975Z" fill="#61FFF6" fill-opacity="0.24"/>
</svg>
